<svg xmlns="http://www.w3.org/2000/svg" xmlns:xlink="http://www.w3.org/1999/xlink" viewBox="0 0 55.3 55.3" class="m--show" width="55.3"  height="55.3" ><path d="M38.6 39.4c-.7 0-1.5-.4-1.8-1.1l-9.1-18.8-9.2 18.8c-.5 1-1.7 1.4-2.7.9s-1.4-1.7-.9-2.7l11-22.5c.3-.7 1-1.1 1.8-1.1s1.5.4 1.8 1.1l10.9 22.5c.5 1 .1 2.2-.9 2.7-.3.1-.6.2-.9.2z" fill="#EE7203"></path><path d="M35.4 32.7l-15.3-.1c-1.1 0-2-.9-2-2s.9-2 2-2l15.3.1c1.1 0 2 .9 2 2s-.9 2-2 2z" fill="#EE7203"></path><defs><path id="icon-sobreNos_svg__a" d="M0 0h55.3v55.3H0z"></path><path id="icon-sobreNos_svg__a" d="M0 0h55.3v55.3H0z"></path></defs><clipPath id="icon-sobreNos_svg__b" fill="#EE7203"><use xlink:href="#icon-sobreNos_svg__a" overflow="visible" fill="#EE7203"></use></clipPath><g clip-path="url(#icon-sobreNos_svg__b)" fill="#EE7203"><path d="M27.5 55.2c-7.3 0-14.2-2.8-19.4-8S0 35.1 0 27.7C0 12.4 12.4 0 27.7 0c15.2 0 27.6 12.4 27.6 27.6 0 15.3-12.5 27.7-27.8 27.6zM27.7 6C15.8 6 6 15.8 6 27.7c0 5.8 2.3 11.2 6.3 15.2 4.1 4 9.4 6.2 15.1 6.2h.2c11.9 0 21.6-9.7 21.6-21.6C49.3 15.7 39.6 6 27.7 6z" fill="#EE7203"></path></g></svg>