<svg version="1.1" id="Layer_1" xmlns="http://www.w3.org/2000/svg" xmlns:xlink="http://www.w3.org/1999/xlink" x="0px" y="0px" viewBox="0 0 350.6 112.6" enable-background="new 0 0 350.6 112.6" xml:space="preserve" width="350.6"  height="112.6" >
<g>
	<path fill="#ED7203" d="M56.3,0l-0.4,0l-0.7,0.1v0.2c-0.6,0.4-1,1-1,1.8c0,0.8,0.4,1.5,1.1,1.8l0,0.2h1c28.7,0,52.1,23.4,52.1,52.2   c0,28.8-23.4,52.2-52.2,52.2S4.1,85.1,4.1,56.3c0-14.8,6.3-28.9,17.3-38.8c0.7,0.4,1.6,0.6,2.4,0.6c2.9,0,5.2-2.3,5.2-5.2   s-2.3-5.2-5.2-5.2s-5.2,2.3-5.2,5.2c0,0.5,0.1,1,0.2,1.5C6.8,25,0,40.3,0,56.3c0,31,25.3,56.3,56.3,56.3s56.3-25.3,56.3-56.3   C112.6,25.3,87.3,0,56.3,0z"/>
	<path fill="#0069B3" d="M64,22.3c-0.1-0.1-0.2-0.2-0.2-0.3c-0.8-0.9-1.7-1.6-2.7-2.1c-0.1-0.1-0.2-0.1-0.3-0.2l-0.3-0.2   c-0.1-0.1-0.2-0.1-0.4-0.2c-0.9-0.4-1.9-0.6-2.9-0.7l-0.1,0c-0.1,0-0.2,0-0.4,0l-0.4,0c-0.1,0-0.2,0-0.3,0l-0.1,0   c-0.1,0-0.2,0-0.4,0l-0.1,0c-0.1,0-0.3,0-0.4,0.1l-0.1,0c-0.1,0-0.2,0-0.4,0.1l-0.2,0c-0.1,0-0.1,0-0.2,0.1l-0.4,0.1   c-2.5,0.7-4.6,2.5-5.9,4.8L20.2,74c-0.6,1-1,2.1-1.2,3.3c-0.4,1.7-0.4,3.5,0.1,5.2c0.8,2.5,2.5,4.7,4.8,5.9   c1.5,0.8,3.1,1.2,4.8,1.2l0.1,0c1.1,0,2.2-0.2,3.2-0.6l34.2-10.6c1.7-0.5,3.1-1.4,4.3-2.6l4.7,8.6c1.8,3.2,5.1,5.2,8.6,5.2   c1.7,0,3.5-0.5,5-1.4c2.3-1.4,3.9-3.6,4.6-6.3c0.7-2.7,0.3-5.5-1-7.9l-27.4-50c0-0.1-0.1-0.1-0.1-0.2l-0.1-0.1   c-0.1-0.2-0.3-0.5-0.5-0.7l-0.1-0.1c-0.1-0.1-0.1-0.2-0.2-0.3 M49.4,62.8L56.4,50l5,9.1c-0.3,0.1-0.6,0.1-0.9,0.2L49.4,62.8z    M40.9,68.8l5.3-1.6l0,0l15.3-4.8c0.6-0.2,1.2-0.3,1.8-0.3l0.1,0c0.3,0,1,0,1.9,0.3l0.1,0c0.1,0,0.2,0.1,0.4,0.1l0.2,0.1   c1.8,0.8,3.2,2.3,3.8,4.2c0.4,1.2,0.4,2.5,0,3.7l0,0.1c0,0-0.1,0.7-0.9,1.9l-0.2,0.3c-0.9,1.1-2,1.9-3.3,2.3l-29,9l-5.4,1.6l-0.1,0   c-0.1,0-0.2,0.1-0.2,0.1L30.2,86c-1.6,0.4-3.3,0.1-4.7-0.8c-1.5-0.9-2.6-2.4-3.1-4.3c-0.3-1-0.3-2.1-0.1-3.1c0.1-0.5,0.3-1,0.6-1.5   c0.8-1.6,2.3-2.7,4-3.2L40.9,68.8z M62.2,32.6l-5.8,10.5l0,0L55,45.6l0,0L44.8,64.2l-18.6,5.8l21.7-39.3l2.5-4.4l0,0l0.3-0.6   c0.6-1.1,1.4-2,2.4-2.6c0.3-0.2,0.7-0.4,1.1-0.5c0.1,0,0.2-0.1,0.2-0.1c1.2-0.4,2.4-0.4,3.6-0.1c0.6,0.2,1.1,0.4,1.7,0.7   c0.1,0.1,0.2,0.1,0.3,0.2c0.1,0,0.1,0.1,0.2,0.1c0.1,0.1,0.2,0.2,0.4,0.3c0,0,0.1,0.1,0.1,0.1c0.1,0.1,0.2,0.2,0.3,0.3l0.2,0.2   c0.1,0.1,0.1,0.2,0.2,0.3l0.1,0.2c0,0,0.1,0.1,0.1,0.1c0.1,0.1,0.2,0.2,0.3,0.5l0.1,0.1c0.3,0.6,0.6,1.2,0.8,1.8   C63.3,29.1,63.1,31,62.2,32.6z M89.6,75.6c0.9,1.6,1.1,3.5,0.7,5.4c-0.5,1.8-1.6,3.3-3.1,4.3c-1.5,0.9-3.2,1.2-4.9,0.7   c-1.7-0.5-3.2-1.6-4.1-3.3l-5.5-10.1c0.8-2.1,1-4.4,0.3-6.6c-0.8-2.5-2.5-4.6-4.8-5.9c-0.9-0.5-1.9-0.8-2.9-1l-6.9-12.5l6.8-12.2   c0.3-0.6,0.6-1.2,0.8-1.9L89.6,75.6z"/>
</g>
<g>
	<g>
		<g>
			<path fill="#ED7203" d="M181.4,99.4c0.2,0.2,0.3,0.5,0.3,0.8c0,0.6-0.4,1.1-1.2,1.6c-0.8,0.5-1.7,0.9-2.6,1.1     c-0.9,0.2-1.8,0.4-2.7,0.4c-2.6,0-4.7-0.8-6.2-2.3c-1.5-1.6-2.3-3.7-2.3-6.4c0-1.7,0.3-3.3,1-4.6c0.7-1.3,1.6-2.4,2.8-3.1     s2.6-1.1,4.2-1.1c2.2,0,4,0.7,5.3,2.2c1.3,1.4,1.9,3.4,1.9,5.8c0,0.5-0.1,0.8-0.3,1c-0.2,0.2-0.5,0.3-0.9,0.3h-11.2     c0.2,4,2.1,6,5.7,6c0.9,0,1.7-0.1,2.3-0.4c0.6-0.2,1.3-0.6,2.1-1c0.6-0.3,1-0.5,1.2-0.5C181,99,181.3,99.2,181.4,99.4z      M171.1,89.2c-0.9,0.9-1.4,2.2-1.6,3.9h9.9c0-1.7-0.5-3-1.3-4c-0.8-0.9-1.9-1.4-3.4-1.4C173.2,87.8,172,88.3,171.1,89.2z"/>
			<path fill="#ED7203" d="M175.1,103.5c-2.7,0-4.8-0.8-6.4-2.4c-1.6-1.6-2.4-3.8-2.4-6.6c0-1.8,0.4-3.4,1-4.7     c0.7-1.4,1.7-2.5,2.9-3.2c1.3-0.8,2.7-1.2,4.3-1.2c2.3,0,4.1,0.8,5.4,2.2c1.3,1.5,2,3.5,2,6c0,0.5-0.1,0.9-0.3,1.2     c-0.2,0.3-0.6,0.4-1.1,0.4h-10.9c0.3,3.7,2,5.5,5.4,5.5c0.9,0,1.6-0.1,2.2-0.3c0.6-0.2,1.3-0.6,2.1-1c0.9-0.5,1.2-0.6,1.3-0.6     c0.3,0,0.6,0.1,0.8,0.4c0.2,0.3,0.3,0.6,0.3,1c0,0.7-0.5,1.3-1.3,1.8c-0.9,0.5-1.8,0.9-2.7,1.1C177,103.4,176,103.5,175.1,103.5z      M174.7,85.9c-1.5,0-2.9,0.4-4,1.1c-1.2,0.7-2.1,1.7-2.7,3c-0.7,1.3-1,2.8-1,4.5c0,2.7,0.7,4.8,2.2,6.3c1.5,1.5,3.5,2.3,6,2.3     c0.9,0,1.7-0.1,2.7-0.4c0.9-0.2,1.8-0.6,2.6-1.1c0.7-0.4,1.1-0.9,1.1-1.4c0-0.3-0.1-0.5-0.2-0.6v0c-0.1-0.2-0.3-0.2-0.5-0.2     c-0.1,0-0.3,0-1.1,0.5c-0.8,0.4-1.5,0.8-2.1,1c-0.7,0.3-1.5,0.4-2.4,0.4c-3.7,0-5.7-2.1-5.9-6.2l0-0.3h11.5     c0.3,0,0.6-0.1,0.7-0.2c0.1-0.2,0.2-0.4,0.2-0.8c0-2.4-0.6-4.3-1.9-5.7C178.5,86.6,176.8,85.9,174.7,85.9z M179.7,93.4h-10.4     l0-0.3c0.2-1.7,0.7-3.1,1.7-4.1l0,0c0.9-1,2.2-1.5,3.8-1.5c1.5,0,2.7,0.5,3.6,1.5c0.8,1,1.3,2.3,1.4,4.1L179.7,93.4z M169.8,92.9     h9.3c-0.1-1.5-0.5-2.7-1.2-3.5c-0.8-0.9-1.8-1.3-3.2-1.3c-1.4,0-2.5,0.4-3.4,1.3l0,0C170.5,90.2,170,91.4,169.8,92.9z"/>
		</g>
		<g>
			<path fill="#ED7203" d="M200.7,78.6c0.3,0.3,0.4,0.6,0.4,1v22.1c0,0.4-0.1,0.8-0.4,1c-0.3,0.3-0.6,0.4-1,0.4s-0.8-0.1-1-0.4     c-0.2-0.3-0.4-0.6-0.4-1v-1.9c-0.5,1.1-1.3,1.9-2.2,2.5c-1,0.6-2.1,0.9-3.5,0.9c-1.5,0-2.8-0.4-3.9-1.1c-1.1-0.7-2-1.8-2.6-3.1     s-0.9-2.9-0.9-4.6c0-1.7,0.3-3.3,0.9-4.6s1.5-2.3,2.6-3.1c1.1-0.7,2.4-1.1,3.9-1.1c1.3,0,2.5,0.3,3.5,0.9c1,0.6,1.7,1.4,2.2,2.5     v-9.3c0-0.4,0.1-0.7,0.4-1c0.2-0.2,0.6-0.4,1-0.4S200.4,78.4,200.7,78.6z M196.9,99.2c0.9-1.1,1.3-2.7,1.3-4.8s-0.4-3.7-1.3-4.8     s-2.2-1.7-3.8-1.7c-1.6,0-2.9,0.6-3.8,1.7s-1.4,2.7-1.4,4.7c0,2.1,0.5,3.7,1.4,4.8s2.2,1.7,3.8,1.7     C194.7,100.9,196,100.3,196.9,99.2z"/>
			<path fill="#ED7203" d="M192.5,103.5c-1.5,0-2.9-0.4-4.1-1.2c-1.2-0.8-2.1-1.8-2.7-3.2c-0.6-1.4-1-3-1-4.8c0-1.8,0.3-3.4,1-4.7     c0.6-1.4,1.6-2.4,2.7-3.2c1.2-0.7,2.5-1.1,4.1-1.1c1.4,0,2.6,0.3,3.6,0.9c0.8,0.4,1.4,1,1.9,1.7v-8.4c0-0.5,0.1-0.9,0.4-1.2     c0.3-0.3,0.7-0.4,1.2-0.4c0.5,0,0.9,0.2,1.2,0.5l0,0c0.3,0.3,0.5,0.7,0.5,1.2v22.1c0,0.5-0.2,0.9-0.5,1.2s-0.7,0.5-1.2,0.5     c-0.5,0-0.9-0.2-1.2-0.5c-0.3-0.3-0.4-0.7-0.4-1.2v-0.9c-0.5,0.7-1.1,1.3-1.9,1.7C195.1,103.2,193.9,103.5,192.5,103.5z      M192.5,85.9c-1.4,0-2.7,0.3-3.8,1s-1.9,1.7-2.6,3c-0.6,1.3-0.9,2.8-0.9,4.5c0,1.7,0.3,3.2,0.9,4.5c0.6,1.3,1.5,2.3,2.6,3     c1.1,0.7,2.4,1.1,3.8,1.1c1.3,0,2.4-0.3,3.3-0.8c0.9-0.6,1.7-1.3,2.1-2.4l0.5-1v3c0,0.4,0.1,0.6,0.3,0.8c0.2,0.2,0.5,0.3,0.8,0.3     c0.4,0,0.7-0.1,0.9-0.3c0.2-0.2,0.3-0.5,0.3-0.8V79.6c0-0.3-0.1-0.6-0.3-0.8c-0.2-0.2-0.5-0.3-0.9-0.3c-0.4,0-0.7,0.1-0.8,0.3     s-0.3,0.5-0.3,0.8v10.4l-0.5-1c-0.5-1-1.2-1.8-2.1-2.4C194.9,86.1,193.8,85.9,192.5,85.9z M193.1,101.1c-1.7,0-3.1-0.6-4-1.8     c-0.9-1.2-1.4-2.9-1.4-5c0-2.1,0.5-3.7,1.4-4.9c1-1.2,2.3-1.8,4-1.8s3.1,0.6,4,1.8c0.9,1.2,1.4,2.8,1.4,4.9s-0.5,3.8-1.4,4.9l0,0     C196.1,100.5,194.8,101.1,193.1,101.1z M193.1,88.2c-1.6,0-2.8,0.5-3.7,1.6c-0.9,1.1-1.3,2.6-1.3,4.5c0,2,0.4,3.6,1.3,4.7     c0.9,1.1,2.1,1.6,3.7,1.6s2.8-0.5,3.6-1.6l0,0c0.9-1.1,1.3-2.6,1.3-4.6c0-2-0.4-3.6-1.3-4.6C195.8,88.7,194.7,88.2,193.1,88.2z"/>
		</g>
		<g>
			<path fill="#ED7203" d="M220.2,86.1c0.2,0.3,0.4,0.6,0.4,1v14.7c0,0.4-0.1,0.7-0.4,1s-0.6,0.4-1,0.4c-0.4,0-0.7-0.1-1-0.4     c-0.2-0.2-0.4-0.6-0.4-1v-1.7c-0.5,1-1.3,1.8-2.2,2.3s-2,0.8-3.3,0.8c-2,0-3.5-0.6-4.6-1.7c-1-1.1-1.5-2.8-1.5-5v-9.5     c0-0.4,0.1-0.8,0.4-1c0.3-0.3,0.6-0.4,1-0.4c0.4,0,0.8,0.1,1,0.4c0.2,0.3,0.4,0.6,0.4,1v9.4c0,1.5,0.3,2.6,0.9,3.3     c0.6,0.7,1.6,1.1,2.9,1.1c1.5,0,2.7-0.5,3.6-1.4c0.9-1,1.4-2.2,1.4-3.8v-8.5c0-0.4,0.1-0.8,0.4-1c0.3-0.3,0.6-0.4,1-0.4     C219.6,85.7,219.9,85.8,220.2,86.1z"/>
			<path fill="#ED7203" d="M212.3,103.5c-2.1,0-3.7-0.6-4.7-1.8c-1.1-1.2-1.6-2.9-1.6-5.2v-9.5c0-0.5,0.2-0.9,0.5-1.2     c0.3-0.3,0.7-0.5,1.2-0.5c0.5,0,0.9,0.2,1.2,0.5c0.3,0.3,0.4,0.7,0.4,1.2v9.4c0,1.4,0.3,2.5,0.8,3.2c0.6,0.6,1.4,1,2.7,1     c1.4,0,2.6-0.5,3.4-1.4c0.9-0.9,1.3-2.1,1.3-3.6v-8.5c0-0.5,0.2-0.9,0.5-1.2c0.3-0.3,0.7-0.5,1.2-0.5c0.5,0,0.9,0.2,1.2,0.5l0,0     c0.3,0.3,0.4,0.7,0.4,1.2v14.7c0,0.5-0.1,0.8-0.4,1.1c-0.3,0.3-0.7,0.5-1.2,0.5c-0.5,0-0.9-0.1-1.2-0.4c-0.3-0.3-0.4-0.7-0.4-1.1     V101c-0.5,0.7-1.1,1.3-1.9,1.7C214.7,103.2,213.5,103.5,212.3,103.5z M207.6,85.9c-0.4,0-0.7,0.1-0.9,0.3     c-0.2,0.2-0.3,0.5-0.3,0.8v9.5c0,2.1,0.5,3.8,1.5,4.8c1,1.1,2.4,1.6,4.4,1.6c1.2,0,2.2-0.3,3.1-0.8c0.9-0.5,1.6-1.3,2.1-2.2     l0.5-0.9v2.8c0,0.3,0.1,0.6,0.3,0.8s0.5,0.3,0.8,0.3c0.4,0,0.6-0.1,0.8-0.3c0.2-0.2,0.3-0.5,0.3-0.8V87.1c0-0.4-0.1-0.6-0.3-0.8     l0,0c-0.2-0.2-0.5-0.3-0.8-0.3c-0.4,0-0.7,0.1-0.9,0.3c-0.2,0.2-0.3,0.5-0.3,0.8v8.5c0,1.6-0.5,3-1.4,4c-0.9,1-2.2,1.5-3.8,1.5     c-1.4,0-2.4-0.4-3-1.2c-0.6-0.8-1-1.9-1-3.5v-9.4c0-0.4-0.1-0.6-0.3-0.8C208.3,86,208,85.9,207.6,85.9z"/>
		</g>
		<g>
			<path fill="#ED7203" d="M228.6,102.1c-1.2-0.7-2.2-1.7-2.8-3.1c-0.7-1.3-1-2.9-1-4.6s0.3-3.3,1-4.6c0.7-1.3,1.6-2.4,2.9-3.1     c1.2-0.7,2.6-1.1,4.2-1.1c0.9,0,1.8,0.1,2.6,0.4c0.9,0.2,1.6,0.6,2.3,1.1c0.4,0.3,0.7,0.6,0.9,0.8c0.2,0.3,0.3,0.6,0.3,0.9     s-0.1,0.6-0.3,0.8s-0.4,0.3-0.7,0.3c-0.2,0-0.3,0-0.5-0.1c-0.2-0.1-0.3-0.2-0.5-0.3c-0.1-0.1-0.2-0.2-0.3-0.2     c-0.6-0.4-1.2-0.7-1.7-0.9s-1.2-0.3-2-0.3c-1.7,0-3,0.6-4,1.7c-0.9,1.1-1.4,2.7-1.4,4.8s0.5,3.6,1.4,4.7s2.3,1.7,4,1.7     c0.8,0,1.5-0.1,2-0.3c0.6-0.2,1.1-0.5,1.7-0.9c0.3-0.2,0.5-0.3,0.7-0.4c0.2-0.1,0.4-0.2,0.6-0.2c0.3,0,0.5,0.1,0.6,0.3     c0.2,0.2,0.3,0.5,0.3,0.8c0,0.3-0.1,0.6-0.2,0.8c-0.2,0.2-0.5,0.5-0.9,0.8c-0.6,0.4-1.4,0.8-2.4,1.1c-0.9,0.3-1.8,0.4-2.8,0.4     C231.2,103.2,229.8,102.9,228.6,102.1z"/>
			<path fill="#ED7203" d="M232.8,103.5c-1.6,0-3.1-0.4-4.3-1.1l0,0c-1.3-0.7-2.2-1.8-2.9-3.2c-0.7-1.4-1-2.9-1-4.7s0.4-3.4,1.1-4.7     c0.7-1.4,1.7-2.5,3-3.2c1.3-0.8,2.7-1.2,4.4-1.2c0.9,0,1.8,0.1,2.7,0.4c0.9,0.2,1.7,0.6,2.4,1.1c0.4,0.3,0.8,0.6,1,0.9     c0.2,0.3,0.3,0.7,0.3,1c0,0.4-0.1,0.7-0.3,1c-0.4,0.4-0.9,0.5-1.5,0.2c-0.2-0.1-0.4-0.2-0.5-0.3c-0.1-0.1-0.2-0.1-0.2-0.2     c-0.6-0.4-1.2-0.7-1.7-0.9c-0.5-0.2-1.2-0.3-1.9-0.3c-1.6,0-2.9,0.5-3.8,1.6c-0.9,1.1-1.4,2.7-1.4,4.6c0,2,0.5,3.5,1.4,4.6     c0.9,1.1,2.1,1.6,3.8,1.6c0.8,0,1.4-0.1,1.9-0.3c0.6-0.2,1.1-0.5,1.7-0.9c0.3-0.2,0.5-0.3,0.8-0.4c0.7-0.3,1.2-0.2,1.5,0.2     c0.2,0.3,0.3,0.6,0.3,1c0,0.3-0.1,0.7-0.3,1c-0.2,0.3-0.5,0.6-1,0.9c-0.7,0.5-1.5,0.8-2.4,1.1     C234.7,103.3,233.8,103.5,232.8,103.5z M232.9,85.9c-1.5,0-2.9,0.4-4.1,1.1c-1.2,0.7-2.1,1.7-2.8,3c-0.7,1.3-1,2.8-1,4.5     c0,1.7,0.3,3.2,1,4.5c0.6,1.3,1.6,2.3,2.7,3l0,0c1.2,0.7,2.5,1,4.1,1c0.9,0,1.8-0.1,2.7-0.4c0.9-0.3,1.7-0.6,2.3-1     c0.4-0.3,0.7-0.5,0.8-0.8c0.1-0.2,0.2-0.4,0.2-0.7c0-0.3-0.1-0.5-0.2-0.6c-0.1-0.2-0.3-0.2-0.5-0.2c-0.1,0-0.2,0-0.5,0.1     c-0.2,0.1-0.5,0.2-0.7,0.4c-0.6,0.4-1.2,0.7-1.8,1c-0.6,0.2-1.3,0.4-2.1,0.4c-1.8,0-3.2-0.6-4.1-1.8c-1-1.2-1.5-2.8-1.5-4.9     c0-2.1,0.5-3.8,1.5-4.9c1-1.2,2.4-1.8,4.1-1.8c0.8,0,1.5,0.1,2.1,0.4c0.6,0.2,1.1,0.6,1.8,1c0,0,0.1,0.1,0.3,0.2     c0.1,0.1,0.3,0.2,0.4,0.3c0.4,0.2,0.7,0.1,0.9-0.1c0.1-0.2,0.2-0.4,0.2-0.6c0-0.3-0.1-0.5-0.2-0.8c-0.2-0.2-0.4-0.5-0.8-0.7     c-0.6-0.4-1.4-0.8-2.2-1C234.7,86,233.8,85.9,232.9,85.9z"/>
		</g>
		<g>
			<path fill="#ED7203" d="M255.8,92.3v9.5c0,0.4-0.1,0.8-0.4,1c-0.2,0.3-0.6,0.4-1,0.4c-0.4,0-0.8-0.1-1-0.4     c-0.3-0.3-0.4-0.6-0.4-1v-1.7c-0.4,1-1.1,1.8-2,2.3c-0.9,0.5-2,0.8-3.1,0.8c-1.1,0-2.1-0.2-3-0.7s-1.6-1.1-2.2-1.8     s-0.8-1.7-0.8-2.6c0-1.3,0.3-2.3,1-3s1.7-1.2,3.2-1.5c1.5-0.3,3.6-0.5,6.2-0.5h0.8V92c0-1.4-0.3-2.4-0.9-3.1s-1.5-1-2.8-1     c-1.6,0-3.2,0.4-4.8,1.3c-0.6,0.4-1.1,0.6-1.3,0.6c-0.3,0-0.5-0.1-0.7-0.3c-0.2-0.2-0.3-0.5-0.3-0.8c0-0.3,0.1-0.6,0.3-0.9     c0.2-0.2,0.5-0.5,1-0.7c0.8-0.5,1.7-0.8,2.8-1.1c1-0.3,2.1-0.4,3.1-0.4C253.7,85.6,255.8,87.8,255.8,92.3z M251.7,99.6     c0.9-0.9,1.3-2.2,1.3-3.6v-1h-0.6c-2,0-3.6,0.1-4.7,0.3s-1.8,0.5-2.3,0.9c-0.5,0.4-0.7,1-0.7,1.8c0,0.9,0.3,1.7,1,2.2     c0.7,0.6,1.5,0.9,2.5,0.9C249.7,101,250.8,100.5,251.7,99.6z"/>
			<path fill="#ED7203" d="M247.9,103.5c-1.1,0-2.2-0.2-3.1-0.7c-1-0.5-1.7-1.1-2.3-1.9c-0.6-0.8-0.8-1.8-0.8-2.8     c0-1.3,0.4-2.4,1-3.1c0.7-0.7,1.8-1.3,3.3-1.6c1.5-0.3,3.6-0.5,6.2-0.5h0.5V92c0-1.3-0.3-2.3-0.8-2.9c-0.5-0.6-1.4-0.9-2.6-0.9     c-1.5,0-3.1,0.4-4.7,1.3c-0.7,0.4-1.1,0.6-1.4,0.6c-0.4,0-0.6-0.1-0.9-0.4c-0.2-0.3-0.3-0.6-0.3-1c0-0.4,0.1-0.7,0.4-1     c0.2-0.3,0.6-0.5,1-0.8c0.8-0.5,1.8-0.9,2.8-1.1c1.1-0.3,2.1-0.4,3.1-0.4c4.4,0,6.6,2.3,6.6,6.9v9.5c0,0.5-0.1,0.9-0.4,1.2     c-0.3,0.3-0.7,0.5-1.2,0.5s-0.9-0.2-1.2-0.5c-0.3-0.3-0.5-0.7-0.5-1.2v-0.7c-0.4,0.6-1,1.2-1.6,1.6     C250.2,103.2,249.1,103.5,247.9,103.5z M252.3,93.4c-2.6,0-4.7,0.2-6.1,0.5c-1.4,0.3-2.5,0.8-3.1,1.5c-0.6,0.7-0.9,1.6-0.9,2.8     c0,0.9,0.3,1.7,0.8,2.5c0.5,0.7,1.2,1.3,2.1,1.8c0.9,0.4,1.9,0.6,2.9,0.6c1.1,0,2.1-0.3,3-0.8c0.9-0.5,1.5-1.3,1.9-2.2l0.5-1.1     v2.9c0,0.4,0.1,0.6,0.3,0.8c0.2,0.2,0.5,0.3,0.8,0.3c0.3,0,0.6-0.1,0.8-0.3c0.2-0.2,0.3-0.5,0.3-0.8v-9.5c0-4.3-2-6.4-6.1-6.4     c-1,0-2,0.1-3,0.4c-1,0.3-1.9,0.6-2.7,1.1c-0.4,0.2-0.7,0.5-0.9,0.7c-0.2,0.2-0.2,0.4-0.2,0.7c0,0.3,0.1,0.5,0.2,0.6     c0.1,0.2,0.3,0.2,0.5,0.2c0.1,0,0.4-0.1,1.2-0.6c1.7-0.9,3.3-1.3,4.9-1.3c1.3,0,2.3,0.4,3,1.1c0.6,0.7,0.9,1.8,0.9,3.2v1.4     L252.3,93.4L252.3,93.4z M248.3,101.2c-1.1,0-2-0.3-2.7-1c-0.7-0.6-1.1-1.5-1.1-2.4c0-0.9,0.3-1.5,0.8-2c0.5-0.4,1.3-0.7,2.4-0.9     c1.1-0.2,2.7-0.3,4.7-0.3h0.9v1.3c0,1.5-0.5,2.8-1.4,3.8l0,0C250.9,100.7,249.7,101.2,248.3,101.2z M252.4,95.2     c-2,0-3.6,0.1-4.6,0.3c-1,0.2-1.7,0.4-2.2,0.8c-0.4,0.4-0.6,0.9-0.6,1.6c0,0.8,0.3,1.5,0.9,2.1c0.6,0.6,1.4,0.8,2.3,0.8     c1.3,0,2.4-0.4,3.2-1.3l0,0c0.8-0.9,1.3-2.1,1.3-3.5v-0.8L252.4,95.2L252.4,95.2z"/>
		</g>
		<g>
			<path fill="#ED7203" d="M273.9,99.3c0.2,0.2,0.3,0.5,0.3,0.8c0,0.3-0.1,0.6-0.2,0.8c-0.2,0.2-0.5,0.5-0.9,0.8     c-0.6,0.4-1.3,0.7-2.1,1s-1.6,0.4-2.4,0.5l-0.1,1.3c0.3-0.1,0.6-0.1,0.9-0.1c0.7,0,1.3,0.2,1.8,0.6s0.7,1,0.7,1.8     c0,0.9-0.4,1.6-1.1,2.1c-0.7,0.5-1.7,0.8-3,0.8c-0.8,0-1.6-0.1-2.4-0.4c-0.2-0.1-0.3-0.2-0.4-0.3s-0.2-0.3-0.2-0.5     c0-0.2,0.1-0.4,0.2-0.5s0.3-0.2,0.6-0.2c0.1,0,0.2,0,0.3,0c0.6,0.2,1.3,0.3,2,0.3c0.6,0,1.1-0.1,1.5-0.3c0.3-0.2,0.5-0.5,0.5-0.9     c0-0.3-0.1-0.5-0.3-0.7c-0.2-0.2-0.5-0.2-0.8-0.2c-0.3,0-0.6,0.1-1,0.2c-0.4,0.1-0.6,0.2-0.7,0.2c-0.2,0-0.4-0.1-0.5-0.2     s-0.2-0.3-0.2-0.5l0.3-2.4c-2-0.3-3.7-1.2-4.9-2.7c-1.2-1.5-1.8-3.5-1.8-5.9c0-1.7,0.3-3.3,1-4.6c0.7-1.3,1.6-2.4,2.9-3.1     c1.2-0.7,2.6-1.1,4.2-1.1c0.9,0,1.8,0.1,2.6,0.4c0.9,0.2,1.6,0.6,2.3,1.1c0.4,0.3,0.7,0.6,0.9,0.8c0.2,0.3,0.3,0.6,0.3,0.9     s-0.1,0.6-0.3,0.8c-0.2,0.2-0.4,0.3-0.7,0.3c-0.2,0-0.3,0-0.5-0.1c-0.2-0.1-0.3-0.2-0.5-0.3c-0.1-0.1-0.2-0.2-0.3-0.2     c-0.6-0.4-1.2-0.7-1.7-0.9c-0.5-0.2-1.2-0.3-2-0.3c-1.7,0-3,0.6-4,1.7c-0.9,1.1-1.4,2.7-1.4,4.8s0.5,3.6,1.4,4.7s2.3,1.7,4,1.7     c0.8,0,1.5-0.1,2-0.3c0.6-0.2,1.1-0.5,1.7-0.9c0.3-0.2,0.5-0.3,0.7-0.4s0.4-0.2,0.6-0.2C273.6,99,273.8,99.1,273.9,99.3z"/>
			<path fill="#ED7203" d="M267.8,110c-0.9,0-1.7-0.1-2.5-0.4c-0.2-0.1-0.4-0.2-0.6-0.4s-0.2-0.4-0.2-0.6c0-0.3,0.1-0.5,0.3-0.7     c0.2-0.2,0.4-0.3,0.7-0.3c0.1,0,0.3,0,0.4,0c0.6,0.2,1.2,0.3,1.9,0.3c0.6,0,1.1-0.1,1.3-0.3c0.3-0.2,0.4-0.4,0.4-0.7     c0-0.2-0.1-0.4-0.2-0.5c-0.2-0.2-0.7-0.2-1.5,0c-0.5,0.1-0.7,0.2-0.8,0.2c-0.2,0-0.5-0.1-0.7-0.2c-0.2-0.2-0.3-0.4-0.3-0.7     l0.2-2.2c-2-0.3-3.6-1.3-4.8-2.8c-1.2-1.6-1.9-3.6-1.9-6.1c0-1.8,0.4-3.4,1.1-4.7c0.7-1.4,1.7-2.5,3-3.2c1.3-0.8,2.7-1.2,4.4-1.2     c0.9,0,1.8,0.1,2.7,0.4c0.9,0.2,1.7,0.6,2.4,1.1c0.4,0.3,0.8,0.6,1,0.9c0.2,0.3,0.3,0.7,0.3,1c0,0.4-0.1,0.7-0.3,1     c-0.3,0.4-0.9,0.5-1.5,0.2c-0.2-0.1-0.4-0.2-0.5-0.3c-0.1-0.1-0.2-0.1-0.2-0.2c-0.6-0.4-1.2-0.7-1.7-0.9     c-0.5-0.2-1.2-0.3-1.9-0.3c-1.6,0-2.9,0.5-3.8,1.6c-0.9,1.1-1.4,2.7-1.4,4.6c0,2,0.5,3.5,1.4,4.6c0.9,1.1,2.1,1.6,3.8,1.6     c0.8,0,1.4-0.1,1.9-0.3c0.6-0.2,1.1-0.5,1.7-0.9c0.3-0.2,0.5-0.3,0.8-0.4c0.7-0.3,1.2-0.2,1.5,0.2l0,0c0.2,0.3,0.3,0.6,0.3,1     c0,0.4-0.1,0.7-0.3,1c-0.2,0.3-0.5,0.6-1,0.9c-0.6,0.4-1.3,0.7-2.1,1c-0.7,0.2-1.5,0.4-2.3,0.4l-0.1,0.8c0.2,0,0.4,0,0.6,0     c0.8,0,1.4,0.2,2,0.7c0.6,0.5,0.8,1.1,0.8,2c0,0.9-0.4,1.7-1.2,2.3C270.2,109.7,269.1,110,267.8,110z M265.6,108     c-0.2,0-0.3,0-0.4,0.1c-0.1,0.1-0.1,0.2-0.1,0.4c0,0.1,0,0.2,0.1,0.3c0.1,0.1,0.2,0.2,0.3,0.2c0.7,0.3,1.5,0.4,2.3,0.4     c1.2,0,2.2-0.3,2.9-0.8c0.7-0.5,1-1.1,1-1.9c0-0.7-0.2-1.2-0.7-1.6c-0.5-0.4-1-0.6-1.7-0.6c-0.3,0-0.6,0-0.8,0.1l-0.4,0.1     l0.2-1.9l0.2,0c0.8,0,1.6-0.2,2.4-0.4c0.8-0.2,1.4-0.6,2-0.9c0.4-0.3,0.7-0.5,0.8-0.7c0.1-0.2,0.2-0.4,0.2-0.7     c0-0.3-0.1-0.5-0.2-0.6l0,0c-0.1-0.2-0.3-0.2-0.5-0.2c-0.1,0-0.2,0-0.5,0.1c-0.2,0.1-0.5,0.2-0.7,0.4c-0.6,0.4-1.2,0.7-1.8,1     c-0.6,0.2-1.3,0.4-2.1,0.4c-1.8,0-3.2-0.6-4.1-1.8c-1-1.2-1.5-2.8-1.5-4.9c0-2.1,0.5-3.8,1.5-4.9c1-1.2,2.4-1.8,4.1-1.8     c0.8,0,1.5,0.1,2.1,0.4c0.6,0.2,1.1,0.6,1.8,1c0,0,0.1,0.1,0.3,0.2c0.1,0.1,0.3,0.2,0.4,0.3c0.4,0.2,0.7,0.1,0.9-0.1     c0.1-0.2,0.2-0.4,0.2-0.6c0-0.3-0.1-0.5-0.2-0.8c-0.2-0.2-0.4-0.5-0.8-0.7c-0.6-0.4-1.4-0.8-2.2-1c-0.8-0.2-1.7-0.4-2.6-0.4     c-1.5,0-2.9,0.4-4.1,1.1c-1.2,0.7-2.1,1.7-2.8,3c-0.7,1.3-1,2.8-1,4.5c0,2.3,0.6,4.3,1.8,5.7c1.2,1.5,2.7,2.4,4.7,2.6l0.2,0     l-0.3,2.6c0,0.1,0,0.2,0.1,0.2c0.1,0.1,0.2,0.1,0.3,0.1c0,0,0.1,0,0.7-0.1c1-0.3,1.6-0.2,2,0.1c0.2,0.2,0.4,0.5,0.4,0.9     c0,0.5-0.2,0.9-0.6,1.1c-0.4,0.2-0.9,0.4-1.6,0.4c-0.7,0-1.4-0.1-2-0.3C265.8,108,265.7,108,265.6,108z"/>
		</g>
		<g>
			<path fill="#ED7203" d="M290.9,92.3v9.5c0,0.4-0.1,0.8-0.4,1c-0.2,0.3-0.6,0.4-1,0.4s-0.8-0.1-1-0.4c-0.3-0.3-0.4-0.6-0.4-1v-1.7     c-0.4,1-1.1,1.8-2,2.3c-0.9,0.5-2,0.8-3.1,0.8c-1.1,0-2.1-0.2-3-0.7s-1.6-1.1-2.2-1.8s-0.8-1.7-0.8-2.6c0-1.3,0.3-2.3,1-3     s1.7-1.2,3.2-1.5c1.5-0.3,3.6-0.5,6.2-0.5h0.8V92c0-1.4-0.3-2.4-0.9-3.1c-0.6-0.7-1.5-1-2.8-1c-1.6,0-3.2,0.4-4.8,1.3     c-0.6,0.4-1.1,0.6-1.3,0.6c-0.3,0-0.5-0.1-0.7-0.3c-0.2-0.2-0.3-0.5-0.3-0.8c0-0.3,0.1-0.6,0.3-0.9c0.2-0.2,0.5-0.5,1-0.7     c0.8-0.5,1.7-0.8,2.8-1.1c1-0.3,2.1-0.4,3.1-0.4C288.8,85.6,290.9,87.8,290.9,92.3z M285.7,82.1c-0.4-0.2-0.9-0.5-1.5-0.9     c-0.5-0.3-0.9-0.6-1.2-0.7c-0.3-0.2-0.6-0.2-0.8-0.2c-0.4,0-0.7,0.1-0.9,0.3c-0.2,0.2-0.4,0.5-0.6,0.9c-0.2,0.3-0.3,0.4-0.4,0.6     s-0.3,0.2-0.4,0.2c-0.2,0-0.4-0.1-0.5-0.2c-0.1-0.2-0.2-0.4-0.2-0.6c0-0.4,0.1-0.9,0.4-1.4c0.3-0.5,0.6-1,1.1-1.3     c0.5-0.4,1-0.6,1.6-0.6c0.4,0,0.9,0.1,1.3,0.3c0.4,0.2,0.9,0.5,1.5,0.9c0.5,0.3,0.9,0.6,1.2,0.7c0.3,0.2,0.6,0.2,0.8,0.2     c0.4,0,0.7-0.1,0.9-0.3c0.2-0.2,0.4-0.5,0.7-0.9c0.2-0.3,0.3-0.5,0.4-0.6c0.1-0.1,0.3-0.2,0.4-0.2c0.2,0,0.4,0.1,0.5,0.3     s0.2,0.4,0.2,0.6c0,0.4-0.1,0.9-0.4,1.4c-0.3,0.5-0.6,1-1.1,1.3c-0.5,0.4-1,0.6-1.6,0.6C286.6,82.4,286.1,82.3,285.7,82.1z      M286.8,99.6c0.9-0.9,1.3-2.2,1.3-3.6v-1h-0.6c-2,0-3.6,0.1-4.7,0.3c-1.1,0.2-1.8,0.5-2.3,0.9c-0.5,0.4-0.7,1-0.7,1.8     c0,0.9,0.3,1.7,1,2.2s1.5,0.9,2.5,0.9C284.8,101,285.9,100.5,286.8,99.6z"/>
			<path fill="#ED7203" d="M283,103.5c-1.1,0-2.2-0.2-3.1-0.7c-1-0.5-1.7-1.1-2.3-1.9c-0.6-0.8-0.8-1.8-0.8-2.8c0-1.3,0.4-2.4,1-3.1     c0.7-0.7,1.8-1.3,3.3-1.6c1.5-0.3,3.6-0.5,6.3-0.5h0.5V92c0-1.3-0.3-2.3-0.8-2.9c-0.5-0.6-1.4-0.9-2.6-0.9     c-1.5,0-3.1,0.4-4.7,1.3c-0.7,0.4-1.1,0.6-1.4,0.6c-0.4,0-0.7-0.1-0.9-0.4c-0.2-0.3-0.3-0.6-0.3-1c0-0.4,0.1-0.7,0.4-1     c0.2-0.3,0.6-0.5,1-0.8c0.8-0.5,1.8-0.9,2.8-1.1c1-0.3,2.1-0.4,3.1-0.4c4.4,0,6.6,2.3,6.6,6.9v9.5c0,0.5-0.1,0.9-0.4,1.2     c-0.3,0.3-0.7,0.5-1.2,0.5c-0.5,0-0.9-0.2-1.2-0.5c-0.3-0.3-0.5-0.7-0.5-1.2v-0.7c-0.4,0.6-1,1.2-1.6,1.6     C285.3,103.2,284.2,103.5,283,103.5z M287.4,93.4c-2.6,0-4.7,0.2-6.1,0.5c-1.4,0.3-2.5,0.8-3.1,1.5c-0.6,0.7-0.9,1.6-0.9,2.8     c0,0.9,0.3,1.7,0.8,2.5c0.5,0.7,1.2,1.3,2.1,1.8c0.9,0.4,1.9,0.6,2.9,0.6c1.1,0,2.1-0.3,3-0.8c0.9-0.5,1.5-1.3,1.9-2.2l0.5-1.1     v2.9c0,0.4,0.1,0.6,0.3,0.8c0.2,0.2,0.5,0.3,0.8,0.3c0.4,0,0.6-0.1,0.8-0.3c0.2-0.2,0.3-0.5,0.3-0.8v-9.5c0-4.3-2-6.4-6.1-6.4     c-1,0-2,0.1-3,0.4c-1,0.3-1.9,0.6-2.7,1.1c-0.4,0.2-0.7,0.5-0.9,0.7c-0.2,0.2-0.2,0.4-0.2,0.7c0,0.3,0.1,0.5,0.2,0.6     c0.1,0.2,0.3,0.2,0.5,0.2c0.1,0,0.4-0.1,1.2-0.6c1.7-0.9,3.3-1.3,4.9-1.3c1.3,0,2.3,0.4,3,1.1c0.6,0.7,0.9,1.8,0.9,3.2v1.4     L287.4,93.4L287.4,93.4z M283.4,101.2c-1.1,0-2-0.3-2.7-1c-0.7-0.6-1.1-1.5-1.1-2.4c0-0.9,0.3-1.5,0.8-2c0.5-0.4,1.3-0.7,2.4-0.9     c1.1-0.2,2.7-0.3,4.7-0.3h0.9v1.3c0,1.5-0.5,2.8-1.4,3.8v0C286.1,100.7,284.9,101.2,283.4,101.2z M287.5,95.2     c-2,0-3.6,0.1-4.6,0.3c-1,0.2-1.7,0.4-2.2,0.8c-0.4,0.4-0.6,0.9-0.6,1.6c0,0.8,0.3,1.5,0.9,2.1c0.6,0.6,1.4,0.8,2.3,0.8     c1.3,0,2.4-0.4,3.2-1.3l0,0c0.8-0.9,1.3-2.1,1.3-3.5v-0.8L287.5,95.2L287.5,95.2z M287,82.7c-0.5,0-1-0.1-1.4-0.3     c-0.4-0.2-0.9-0.5-1.5-0.9c-0.5-0.3-0.9-0.5-1.2-0.7c-0.7-0.3-1.2-0.2-1.5,0c-0.2,0.2-0.4,0.5-0.6,0.8c-0.2,0.3-0.3,0.5-0.5,0.6     c-0.2,0.2-0.4,0.3-0.6,0.3c-0.3,0-0.5-0.1-0.7-0.3c-0.2-0.2-0.3-0.5-0.3-0.8c0-0.5,0.1-1,0.4-1.5c0.3-0.5,0.7-1,1.1-1.4     c0.9-0.7,2.1-0.8,3.1-0.3c0.4,0.2,0.9,0.5,1.5,0.9c0.5,0.3,0.9,0.6,1.2,0.7c0.6,0.3,1.1,0.2,1.4,0c0.2-0.2,0.4-0.5,0.6-0.8     c0.2-0.3,0.3-0.5,0.4-0.6c0.4-0.4,1-0.3,1.3,0.1c0.2,0.2,0.3,0.5,0.3,0.8c0,0.4-0.1,0.9-0.4,1.5c-0.3,0.6-0.7,1-1.1,1.4     C288.2,82.5,287.7,82.7,287,82.7z M282.2,80c0.3,0,0.6,0.1,0.9,0.3c0.3,0.2,0.7,0.4,1.2,0.7c0.6,0.4,1.1,0.7,1.5,0.9     c0.9,0.4,1.8,0.4,2.6-0.2c0.4-0.3,0.8-0.8,1-1.3c0.2-0.5,0.4-0.9,0.4-1.3c0-0.2,0-0.4-0.2-0.5c-0.2-0.2-0.4-0.2-0.6-0.1     c-0.1,0.1-0.2,0.3-0.4,0.6c-0.2,0.4-0.5,0.7-0.7,0.9c-0.4,0.4-1.2,0.5-2,0.1c-0.3-0.2-0.7-0.4-1.2-0.7c-0.6-0.4-1.1-0.7-1.5-0.9     c-0.9-0.4-1.8-0.4-2.6,0.2c-0.4,0.3-0.8,0.8-1,1.2c-0.2,0.5-0.4,0.9-0.4,1.3c0,0.2,0,0.3,0.1,0.5c0.2,0.2,0.4,0.2,0.6,0     c0.1-0.1,0.2-0.3,0.4-0.5c0.2-0.4,0.4-0.7,0.7-0.9C281.3,80.2,281.7,80,282.2,80z"/>
		</g>
		<g>
			<path fill="#ED7203" d="M298.9,102.1c-1.2-0.7-2.2-1.7-2.8-3.1s-1-2.9-1-4.6s0.3-3.3,1-4.6c0.7-1.3,1.6-2.4,2.8-3.1     c1.2-0.7,2.6-1.1,4.2-1.1c1.6,0,3,0.4,4.2,1.1c1.2,0.7,2.2,1.7,2.8,3.1c0.7,1.3,1,2.9,1,4.6c0,1.8-0.3,3.3-1,4.6     c-0.7,1.3-1.6,2.4-2.8,3.1c-1.2,0.7-2.6,1.1-4.2,1.1C301.5,103.2,300.1,102.9,298.9,102.1z M306.9,99.2c0.9-1.1,1.3-2.7,1.3-4.8     c0-2.1-0.5-3.7-1.4-4.8c-0.9-1.1-2.2-1.7-3.8-1.7s-2.9,0.6-3.8,1.7c-0.9,1.1-1.4,2.7-1.4,4.8c0,2.1,0.4,3.7,1.3,4.8     c0.9,1.1,2.2,1.7,3.8,1.7C304.8,100.9,306.1,100.3,306.9,99.2z"/>
			<path fill="#ED7203" d="M303.1,103.5c-1.6,0-3.1-0.4-4.4-1.1c-1.3-0.7-2.2-1.8-2.9-3.2c-0.7-1.4-1-3-1-4.8c0-1.8,0.3-3.4,1-4.8     c0.7-1.4,1.7-2.4,2.9-3.2c1.3-0.7,2.7-1.1,4.4-1.1c1.6,0,3.1,0.4,4.4,1.1c1.3,0.7,2.3,1.8,2.9,3.2c0.7,1.4,1,3,1,4.8     s-0.3,3.4-1,4.8c-0.7,1.4-1.7,2.4-2.9,3.2C306.2,103.1,304.7,103.5,303.1,103.5z M303.1,85.9c-1.5,0-2.9,0.4-4.1,1     c-1.2,0.7-2.1,1.7-2.7,3c-0.6,1.3-1,2.8-1,4.5c0,1.7,0.3,3.2,1,4.5c0.6,1.3,1.6,2.3,2.7,3l0,0c1.2,0.7,2.6,1,4.1,1     c1.5,0,2.9-0.4,4.1-1c1.2-0.7,2.1-1.7,2.7-3c0.6-1.3,1-2.8,1-4.5c0-1.7-0.3-3.2-1-4.5c-0.6-1.3-1.6-2.3-2.7-3     C306,86.2,304.6,85.9,303.1,85.9z M303.1,101.1c-1.7,0-3.1-0.6-4-1.8c-0.9-1.2-1.4-2.8-1.4-5c0-2.1,0.5-3.8,1.4-4.9     c1-1.2,2.3-1.8,4-1.8s3.1,0.6,4,1.8c0.9,1.2,1.4,2.8,1.4,4.9c0,2.2-0.5,3.8-1.4,5C306.2,100.6,304.8,101.1,303.1,101.1z      M303.1,88.2c-1.6,0-2.8,0.5-3.6,1.6c-0.9,1.1-1.3,2.6-1.3,4.6c0,2,0.4,3.6,1.3,4.6c0.8,1,2.1,1.6,3.6,1.6c1.6,0,2.8-0.5,3.7-1.6     c0.9-1.1,1.3-2.6,1.3-4.7c0-2-0.4-3.6-1.3-4.6C305.9,88.7,304.7,88.2,303.1,88.2z"/>
		</g>
	</g>
	<g>
		<path fill="#0069B3" d="M130.7,68.5c-1.4,0-2.4-0.5-3.1-1.5c-0.6-1-0.6-2.2,0.1-3.6l16.2-35.8c0.5-1.2,1.2-2,1.9-2.5    c0.8-0.5,1.6-0.8,2.6-0.8c0.9,0,1.8,0.3,2.5,0.8c0.8,0.5,1.4,1.4,1.9,2.5l16.2,35.8c0.7,1.4,0.7,2.6,0.1,3.6    c-0.6,1-1.6,1.4-2.9,1.4c-1.1,0-2-0.3-2.7-0.8c-0.6-0.6-1.2-1.4-1.7-2.5l-3.1-7.1h-21.1l-3,7.1c-0.5,1.2-1.1,2-1.7,2.6    C132.5,68.2,131.7,68.5,130.7,68.5z M148.2,33.3l-7.8,18.4h15.7l-7.8-18.4H148.2z"/>
		<path fill="#0069B3" d="M185.3,68.6c-6.8,0-10.2-3.8-10.2-11.5v-29c0-2.6,1.3-3.9,3.8-3.9c2.6,0,3.9,1.3,3.9,3.9v28.6    c0,3.7,1.5,5.5,4.6,5.5c0.3,0,0.6,0,0.9,0c0.3,0,0.6-0.1,0.9-0.1c0.6-0.1,1,0.1,1.2,0.5c0.2,0.4,0.3,1.2,0.3,2.4    c0,1-0.2,1.8-0.6,2.4c-0.4,0.6-1.1,0.9-2,1C187.1,68.5,186.2,68.6,185.3,68.6z"/>
		<path fill="#0069B3" d="M198.4,31.9c-1.4,0-2.5-0.4-3.3-1.1c-0.8-0.7-1.2-1.7-1.2-3c0-1.3,0.4-2.3,1.2-3c0.8-0.7,1.9-1,3.3-1    c3,0,4.5,1.3,4.5,4C202.9,30.5,201.4,31.9,198.4,31.9z M198.4,68.4c-1.2,0-2.2-0.4-2.8-1.1c-0.7-0.7-1-1.8-1-3.1V41.8    c0-2.8,1.3-4.2,3.8-4.2c2.6,0,3.9,1.4,3.9,4.2v22.5c0,1.3-0.3,2.3-1,3.1C200.6,68,199.7,68.4,198.4,68.4z"/>
		<path fill="#0069B3" d="M224.1,68.6c-3.1,0-5.9-0.6-8.2-1.9c-2.3-1.3-4.1-3.1-5.4-5.5s-1.9-5.1-1.9-8.3c0-3.2,0.6-5.9,1.9-8.2    c1.3-2.3,3.1-4.1,5.4-5.3c2.3-1.2,5.1-1.9,8.2-1.9c1.3,0,2.8,0.2,4.4,0.6c1.6,0.4,3.1,1,4.4,1.8c0.8,0.5,1.3,1.1,1.4,1.9    c0.1,0.8,0,1.5-0.3,2.1c-0.3,0.7-0.9,1.1-1.5,1.4c-0.7,0.3-1.4,0.2-2.3-0.3c-1.9-1.1-3.7-1.6-5.4-1.6c-2.7,0-4.7,0.8-6.2,2.5    c-1.5,1.7-2.2,4-2.2,7.1c0,3,0.7,5.4,2.2,7.1c1.4,1.7,3.5,2.6,6.2,2.6c1.8,0,3.6-0.5,5.4-1.5c0.9-0.5,1.6-0.6,2.3-0.3    c0.7,0.3,1.1,0.8,1.4,1.4c0.3,0.7,0.3,1.4,0.2,2.1c-0.2,0.8-0.6,1.4-1.4,1.9c-1.3,0.8-2.8,1.4-4.3,1.8    C226.8,68.4,225.4,68.6,224.1,68.6z"/>
		<path fill="#0069B3" d="M253.3,68.6c-3.4,0-6.3-0.6-8.8-1.9c-2.5-1.3-4.3-3.1-5.7-5.4c-1.3-2.3-2-5.1-2-8.3c0-3.1,0.6-5.8,1.9-8.1    c1.3-2.3,3.1-4.2,5.3-5.5s4.8-2,7.7-2c4.2,0,7.6,1.3,10.1,4c2.5,2.7,3.7,6.4,3.7,11c0,1.5-1,2.3-2.9,2.3h-18.5    c0.6,5.3,3.6,8,9.2,8c1.1,0,2.3-0.1,3.6-0.4c1.3-0.3,2.6-0.7,3.8-1.4c1.1-0.6,2-0.8,2.7-0.6c0.7,0.2,1.3,0.7,1.6,1.3    c0.3,0.7,0.3,1.4,0.1,2.2c-0.2,0.8-0.8,1.5-1.7,2.1c-1.4,0.9-3.1,1.6-4.9,2C256.6,68.4,254.9,68.6,253.3,68.6z M252.2,42.6    c-2.2,0-4.1,0.7-5.5,2.1c-1.4,1.4-2.2,3.3-2.5,5.6h15.1c-0.2-2.5-0.8-4.4-2.1-5.7C256,43.3,254.3,42.6,252.2,42.6z"/>
		<path fill="#0069B3" d="M275.6,68.5c-2.6,0-3.9-1.3-3.9-3.9V41.4c0-2.6,1.2-3.9,3.7-3.9c2.5,0,3.7,1.3,3.7,3.9v1.9    c1.5-3.5,4.6-5.5,9.4-5.9c1.8-0.2,2.7,0.8,2.9,3c0.2,2.2-0.9,3.4-3.2,3.6l-1.3,0.1c-5,0.5-7.5,3.1-7.5,7.7v12.7    C279.5,67.2,278.2,68.5,275.6,68.5z"/>
		<path fill="#0069B3" d="M309.1,68.6c-3.1,0-5.9-0.6-8.2-1.9c-2.3-1.3-4.1-3.1-5.4-5.5s-1.9-5.1-1.9-8.3c0-3.2,0.6-5.9,1.9-8.2    c1.3-2.3,3.1-4.1,5.4-5.3c2.3-1.2,5.1-1.9,8.2-1.9c1.3,0,2.8,0.2,4.4,0.6c1.6,0.4,3.1,1,4.4,1.8c0.8,0.5,1.3,1.1,1.4,1.9    c0.1,0.8,0,1.5-0.3,2.1c-0.3,0.7-0.9,1.1-1.5,1.4c-0.7,0.3-1.4,0.2-2.3-0.3c-1.9-1.1-3.7-1.6-5.5-1.6c-2.7,0-4.7,0.8-6.2,2.5    c-1.5,1.7-2.2,4-2.2,7.1c0,3,0.7,5.4,2.2,7.1c1.4,1.7,3.5,2.6,6.2,2.6c1.8,0,3.6-0.5,5.5-1.5c0.9-0.5,1.6-0.6,2.3-0.3    c0.7,0.3,1.1,0.8,1.4,1.4c0.3,0.7,0.3,1.4,0.2,2.1c-0.2,0.8-0.6,1.4-1.4,1.9c-1.3,0.8-2.8,1.4-4.3,1.8    C311.9,68.4,310.4,68.6,309.1,68.6z"/>
		<path fill="#0069B3" d="M338.3,68.6c-3.4,0-6.3-0.6-8.8-1.9c-2.5-1.3-4.3-3.1-5.7-5.4c-1.3-2.3-2-5.1-2-8.3c0-3.1,0.6-5.8,1.9-8.1    c1.3-2.3,3.1-4.2,5.3-5.5s4.8-2,7.7-2c4.2,0,7.6,1.3,10.1,4c2.5,2.7,3.7,6.4,3.7,11c0,1.5-1,2.3-2.9,2.3h-18.5    c0.6,5.3,3.6,8,9.2,8c1.1,0,2.3-0.1,3.6-0.4c1.3-0.3,2.6-0.7,3.8-1.4c1.1-0.6,2-0.8,2.7-0.6c0.7,0.2,1.3,0.7,1.6,1.3    c0.3,0.7,0.3,1.4,0.1,2.2c-0.2,0.8-0.8,1.5-1.7,2.1c-1.4,0.9-3.1,1.6-4.9,2S339.9,68.6,338.3,68.6z M337.2,42.6    c-2.2,0-4.1,0.7-5.5,2.1c-1.4,1.4-2.2,3.3-2.5,5.6h15.1c-0.2-2.5-0.8-4.4-2.1-5.7C341,43.3,339.4,42.6,337.2,42.6z"/>
	</g>
</g>
</svg>